<svg width="24" height="22" viewBox="0 0 24 22" fill="none" xmlns="http://www.w3.org/2000/svg">
<path d="M12 6V19" stroke="#9B1B48" stroke-width="2" stroke-linecap="round"/>
<path d="M21 6L21 19" stroke="#9B1B48" stroke-width="2" stroke-linecap="round"/>
<path d="M3 6L3 19" stroke="#9B1B48" stroke-width="2" stroke-linecap="round"/>
<path d="M21 19C21 19 20 17 16.5 17C13 17 12 19 12 19" stroke="#9B1B48" stroke-width="2" stroke-linecap="round"/>
<path d="M12 19C12 19 11 17 7.5 17C4 17 3 19 3 19" stroke="#9B1B48" stroke-width="2" stroke-linecap="round"/>
<path d="M21 6C21 6 20 4 16.5 4C13 4 12 6 12 6" stroke="#9B1B48" stroke-width="2" stroke-linecap="round"/>
<path d="M12 6C12 6 11 4 7.5 4C4 4 3 6 3 6" stroke="#9B1B48" stroke-width="2" stroke-linecap="round"/>
</svg>
